# MagicaVoxel @ Ephtracy

# material
mtllib stand.mtl
usemtl palette

# normals
vn -1 0 0
vn 1 0 0
vn 0 0 1
vn 0 0 -1
vn 0 -1 0
vn 0 1 0

# texcoords
vt 0.251953 0.5
vt 0.255859 0.5
vt 0.306641 0.5

# verts
v -40 0 40
v -40 0 -40
v -40 1 40
v -40 1 -40
v -40 2 40
v -40 2 -40
v -40 3 40
v -40 3 -40
v -39 3 39
v -39 3 -39
v -39 4 39
v -39 4 -39
v -39 5 39
v -39 5 -39
v -39 6 39
v -39 6 -39
v -38 6 38
v -38 6 -38
v -38 7 38
v -38 7 -38
v -38 8 38
v -38 8 -38
v -38 9 38
v -38 9 -38
v 38 6 38
v 38 6 -38
v 38 7 38
v 38 7 -38
v 38 8 38
v 38 8 -38
v 38 9 38
v 38 9 -38
v 39 3 39
v 39 3 -39
v 39 4 39
v 39 4 -39
v 39 5 39
v 39 5 -39
v 39 6 39
v 39 6 -39
v 40 0 40
v 40 0 -40
v 40 1 40
v 40 1 -40
v 40 2 40
v 40 2 -40
v 40 3 40
v 40 3 -40
v -40 0 40
v -40 1 40
v -40 2 40
v -40 3 40
v 40 0 40
v 40 1 40
v 40 2 40
v 40 3 40
v -39 3 39
v -39 4 39
v -39 5 39
v -39 6 39
v 39 3 39
v 39 4 39
v 39 5 39
v 39 6 39
v -38 6 38
v -38 7 38
v -38 8 38
v -38 9 38
v 38 6 38
v 38 7 38
v 38 8 38
v 38 9 38
v -38 6 -38
v -38 7 -38
v -38 8 -38
v -38 9 -38
v 38 6 -38
v 38 7 -38
v 38 8 -38
v 38 9 -38
v -39 3 -39
v -39 4 -39
v -39 5 -39
v -39 6 -39
v 39 3 -39
v 39 4 -39
v 39 5 -39
v 39 6 -39
v -40 0 -40
v -40 1 -40
v -40 2 -40
v -40 3 -40
v 40 0 -40
v 40 1 -40
v 40 2 -40
v 40 3 -40
v -40 0 40
v 40 0 40
v -33 0 37
v 33 0 37
v -34 0 36
v -33 0 36
v 33 0 36
v 34 0 36
v -35 0 35
v -34 0 35
v 34 0 35
v 35 0 35
v -36 0 34
v -35 0 34
v 35 0 34
v 36 0 34
v -37 0 33
v -36 0 33
v 36 0 33
v 37 0 33
v -37 0 -33
v -36 0 -33
v 36 0 -33
v 37 0 -33
v -36 0 -34
v -35 0 -34
v 35 0 -34
v 36 0 -34
v -35 0 -35
v -34 0 -35
v 34 0 -35
v 35 0 -35
v -34 0 -36
v -33 0 -36
v 33 0 -36
v 34 0 -36
v -33 0 -37
v 33 0 -37
v -40 0 -40
v 40 0 -40
v -40 3 40
v 40 3 40
v -39 3 39
v 39 3 39
v -39 3 -39
v 39 3 -39
v -40 3 -40
v 40 3 -40
v -39 6 39
v 39 6 39
v -38 6 38
v 38 6 38
v -38 6 -38
v 38 6 -38
v -39 6 -39
v 39 6 -39
v -38 9 38
v 38 9 38
v -31 9 35
v 31 9 35
v -32 9 34
v -31 9 34
v 31 9 34
v 32 9 34
v -33 9 33
v -32 9 33
v 32 9 33
v 33 9 33
v -34 9 32
v -33 9 32
v 33 9 32
v 34 9 32
v -35 9 31
v -34 9 31
v 34 9 31
v 35 9 31
v -35 9 -31
v -34 9 -31
v 34 9 -31
v 35 9 -31
v -34 9 -32
v -33 9 -32
v 33 9 -32
v 34 9 -32
v -33 9 -33
v -32 9 -33
v 32 9 -33
v 33 9 -33
v -32 9 -34
v -31 9 -34
v 31 9 -34
v 32 9 -34
v -31 9 -35
v 31 9 -35
v -38 9 -38
v 38 9 -38

# faces
f 3/2/1 2/2/1 1/2/1
f 4/2/1 2/2/1 3/2/1
f 5/1/1 4/1/1 3/1/1
f 6/1/1 4/1/1 5/1/1
f 7/2/1 6/2/1 5/2/1
f 8/2/1 6/2/1 7/2/1
f 11/2/1 10/2/1 9/2/1
f 12/2/1 10/2/1 11/2/1
f 13/1/1 12/1/1 11/1/1
f 14/1/1 12/1/1 13/1/1
f 15/2/1 14/2/1 13/2/1
f 16/2/1 14/2/1 15/2/1
f 19/2/1 18/2/1 17/2/1
f 20/2/1 18/2/1 19/2/1
f 21/1/1 20/1/1 19/1/1
f 22/1/1 20/1/1 21/1/1
f 23/2/1 22/2/1 21/2/1
f 24/2/1 22/2/1 23/2/1
f 25/2/2 26/2/2 27/2/2
f 27/2/2 26/2/2 28/2/2
f 27/1/2 28/1/2 29/1/2
f 29/1/2 28/1/2 30/1/2
f 29/2/2 30/2/2 31/2/2
f 31/2/2 30/2/2 32/2/2
f 33/2/2 34/2/2 35/2/2
f 35/2/2 34/2/2 36/2/2
f 35/1/2 36/1/2 37/1/2
f 37/1/2 36/1/2 38/1/2
f 37/2/2 38/2/2 39/2/2
f 39/2/2 38/2/2 40/2/2
f 41/2/2 42/2/2 43/2/2
f 43/2/2 42/2/2 44/2/2
f 43/1/2 44/1/2 45/1/2
f 45/1/2 44/1/2 46/1/2
f 45/2/2 46/2/2 47/2/2
f 47/2/2 46/2/2 48/2/2
f 53/2/3 50/2/3 49/2/3
f 54/1/3 51/1/3 50/1/3
f 54/2/3 50/2/3 53/2/3
f 55/2/3 52/2/3 51/2/3
f 55/1/3 51/1/3 54/1/3
f 56/2/3 52/2/3 55/2/3
f 61/2/3 58/2/3 57/2/3
f 62/1/3 59/1/3 58/1/3
f 62/2/3 58/2/3 61/2/3
f 63/2/3 60/2/3 59/2/3
f 63/1/3 59/1/3 62/1/3
f 64/2/3 60/2/3 63/2/3
f 69/2/3 66/2/3 65/2/3
f 70/1/3 67/1/3 66/1/3
f 70/2/3 66/2/3 69/2/3
f 71/2/3 68/2/3 67/2/3
f 71/1/3 67/1/3 70/1/3
f 72/2/3 68/2/3 71/2/3
f 73/2/4 74/2/4 77/2/4
f 74/1/4 75/1/4 78/1/4
f 77/2/4 74/2/4 78/2/4
f 75/2/4 76/2/4 79/2/4
f 78/1/4 75/1/4 79/1/4
f 79/2/4 76/2/4 80/2/4
f 81/2/4 82/2/4 85/2/4
f 82/1/4 83/1/4 86/1/4
f 85/2/4 82/2/4 86/2/4
f 83/2/4 84/2/4 87/2/4
f 86/1/4 83/1/4 87/1/4
f 87/2/4 84/2/4 88/2/4
f 89/2/4 90/2/4 93/2/4
f 90/1/4 91/1/4 94/1/4
f 93/2/4 90/2/4 94/2/4
f 91/2/4 92/2/4 95/2/4
f 94/1/4 91/1/4 95/1/4
f 95/2/4 92/2/4 96/2/4
f 99/2/5 98/2/5 97/2/5
f 100/2/5 98/2/5 99/2/5
f 101/2/5 99/2/5 97/2/5
f 102/1/5 100/1/5 99/1/5
f 102/2/5 99/2/5 101/2/5
f 103/2/5 98/2/5 100/2/5
f 103/1/5 100/1/5 102/1/5
f 104/2/5 98/2/5 103/2/5
f 105/2/5 101/2/5 97/2/5
f 106/1/5 102/1/5 101/1/5
f 106/2/5 101/2/5 105/2/5
f 106/1/5 103/1/5 102/1/5
f 106/1/5 104/1/5 103/1/5
f 107/2/5 98/2/5 104/2/5
f 107/1/5 104/1/5 106/1/5
f 108/2/5 98/2/5 107/2/5
f 109/2/5 105/2/5 97/2/5
f 110/1/5 106/1/5 105/1/5
f 110/2/5 105/2/5 109/2/5
f 110/1/5 107/1/5 106/1/5
f 110/1/5 108/1/5 107/1/5
f 111/2/5 98/2/5 108/2/5
f 111/1/5 108/1/5 110/1/5
f 112/2/5 98/2/5 111/2/5
f 113/2/5 109/2/5 97/2/5
f 114/1/5 110/1/5 109/1/5
f 114/2/5 109/2/5 113/2/5
f 114/1/5 111/1/5 110/1/5
f 114/1/5 112/1/5 111/1/5
f 115/2/5 98/2/5 112/2/5
f 115/1/5 112/1/5 114/1/5
f 116/2/5 98/2/5 115/2/5
f 117/2/5 113/2/5 97/2/5
f 117/1/5 114/1/5 113/1/5
f 117/1/5 116/1/5 115/1/5
f 117/1/5 115/1/5 114/1/5
f 118/1/5 116/1/5 117/1/5
f 119/1/5 116/1/5 118/1/5
f 120/2/5 98/2/5 116/2/5
f 120/1/5 116/1/5 119/1/5
f 121/1/5 119/1/5 118/1/5
f 121/2/5 118/2/5 117/2/5
f 122/1/5 119/1/5 121/1/5
f 123/1/5 119/1/5 122/1/5
f 124/2/5 120/2/5 119/2/5
f 124/1/5 119/1/5 123/1/5
f 125/1/5 123/1/5 122/1/5
f 125/2/5 122/2/5 121/2/5
f 126/1/5 123/1/5 125/1/5
f 127/1/5 123/1/5 126/1/5
f 128/2/5 124/2/5 123/2/5
f 128/1/5 123/1/5 127/1/5
f 129/1/5 127/1/5 126/1/5
f 129/2/5 126/2/5 125/2/5
f 130/1/5 127/1/5 129/1/5
f 131/1/5 127/1/5 130/1/5
f 132/2/5 128/2/5 127/2/5
f 132/1/5 127/1/5 131/1/5
f 133/1/5 131/1/5 130/1/5
f 133/2/5 130/2/5 129/2/5
f 134/2/5 132/2/5 131/2/5
f 134/1/5 131/1/5 133/1/5
f 135/2/5 117/2/5 97/2/5
f 135/2/5 121/2/5 117/2/5
f 135/2/5 134/2/5 133/2/5
f 135/2/5 133/2/5 129/2/5
f 135/2/5 129/2/5 125/2/5
f 135/2/5 125/2/5 121/2/5
f 136/2/5 98/2/5 120/2/5
f 136/2/5 134/2/5 135/2/5
f 136/2/5 132/2/5 134/2/5
f 136/2/5 124/2/5 128/2/5
f 136/2/5 128/2/5 132/2/5
f 136/2/5 120/2/5 124/2/5
f 137/2/6 138/2/6 139/2/6
f 139/2/6 138/2/6 140/2/6
f 137/2/6 139/2/6 141/2/6
f 140/2/6 138/2/6 142/2/6
f 137/2/6 141/2/6 143/2/6
f 141/2/6 142/2/6 143/2/6
f 142/2/6 138/2/6 144/2/6
f 143/2/6 142/2/6 144/2/6
f 145/2/6 146/2/6 147/2/6
f 147/2/6 146/2/6 148/2/6
f 145/2/6 147/2/6 149/2/6
f 148/2/6 146/2/6 150/2/6
f 145/2/6 149/2/6 151/2/6
f 149/2/6 150/2/6 151/2/6
f 150/2/6 146/2/6 152/2/6
f 151/2/6 150/2/6 152/2/6
f 153/2/6 154/2/6 155/2/6
f 155/2/6 154/2/6 156/2/6
f 153/2/6 155/2/6 157/2/6
f 155/1/6 156/1/6 158/1/6
f 157/2/6 155/2/6 158/2/6
f 156/2/6 154/2/6 159/2/6
f 158/1/6 156/1/6 159/1/6
f 159/2/6 154/2/6 160/2/6
f 153/2/6 157/2/6 161/2/6
f 157/1/6 158/1/6 162/1/6
f 161/2/6 157/2/6 162/2/6
f 158/1/6 159/1/6 162/1/6
f 159/1/6 160/1/6 162/1/6
f 160/2/6 154/2/6 163/2/6
f 162/1/6 160/1/6 163/1/6
f 163/2/6 154/2/6 164/2/6
f 153/2/6 161/2/6 165/2/6
f 161/1/6 162/1/6 166/1/6
f 165/2/6 161/2/6 166/2/6
f 162/1/6 163/1/6 166/1/6
f 163/1/6 164/1/6 166/1/6
f 164/2/6 154/2/6 167/2/6
f 166/1/6 164/1/6 167/1/6
f 167/2/6 154/2/6 168/2/6
f 153/2/6 165/2/6 169/2/6
f 165/1/6 166/1/6 170/1/6
f 169/2/6 165/2/6 170/2/6
f 166/1/6 167/1/6 170/1/6
f 167/1/6 168/1/6 170/1/6
f 168/2/6 154/2/6 171/2/6
f 170/1/6 168/1/6 171/1/6
f 171/2/6 154/2/6 172/2/6
f 153/2/6 169/2/6 173/2/6
f 169/1/6 170/1/6 173/1/6
f 171/1/6 172/1/6 173/1/6
f 170/1/6 171/1/6 173/1/6
f 173/1/6 172/1/6 174/1/6
f 174/1/6 172/1/6 175/1/6
f 172/2/6 154/2/6 176/2/6
f 175/1/6 172/1/6 176/1/6
f 174/1/6 175/1/6 177/1/6
f 173/2/6 174/2/6 177/2/6
f 177/1/6 175/1/6 178/1/6
f 178/1/6 175/1/6 179/1/6
f 175/2/6 176/2/6 180/2/6
f 179/1/6 175/1/6 180/1/6
f 178/1/6 179/1/6 181/1/6
f 177/2/6 178/2/6 181/2/6
f 181/1/6 179/1/6 182/1/6
f 182/1/6 179/1/6 183/1/6
f 179/2/6 180/2/6 184/2/6
f 183/1/6 179/1/6 184/1/6
f 182/1/6 183/1/6 185/1/6
f 181/2/6 182/2/6 185/2/6
f 185/1/6 183/1/6 186/1/6
f 186/1/6 183/1/6 187/1/6
f 183/2/6 184/2/6 188/2/6
f 187/1/6 183/1/6 188/1/6
f 186/1/6 187/1/6 189/1/6
f 185/2/6 186/2/6 189/2/6
f 187/2/6 188/2/6 190/2/6
f 189/1/6 187/1/6 190/1/6
f 153/2/6 173/2/6 191/2/6
f 173/2/6 177/2/6 191/2/6
f 189/2/6 190/2/6 191/2/6
f 185/2/6 189/2/6 191/2/6
f 181/2/6 185/2/6 191/2/6
f 177/2/6 181/2/6 191/2/6
f 176/2/6 154/2/6 192/2/6
f 191/2/6 190/2/6 192/2/6
f 190/2/6 188/2/6 192/2/6
f 184/2/6 180/2/6 192/2/6
f 188/2/6 184/2/6 192/2/6
f 180/2/6 176/2/6 192/2/6
